<svg xmlns="http://www.w3.org/2000/svg" viewBox="0 0 465.84 330.17">
    <defs>
        <style>.cls-1{fill:#ffbf00 ; animation: roll 5s ease-in-out 0s infinite alternate; }.cls-2{fill:#fff;
        
        }
        @keyframes roll {
    0% {
        transform: rotate(25deg);
        transform-origin: 50% 50%;
    }
    100% {
        transform: rotate(-25deg);
        transform-origin: 50% 50%;
    }
}
</style>
    </defs>
    <title>Asset 6</title>
    <g id="Layer_2" data-name="Layer 2">
        <g id="Layer_1-2" data-name="Layer 1">
            <path id="Shape_1_copy_4" data-name="Shape 1 copy 4" class="cls-1" d="M465.84,134.4C465.76,60.31,361.41.14,232.78,0S-.08,59.8,0,133.89c.07,63.4,76.51,116.57,179.17,130.69-8.33,23.71-22.24,51.65-44.09,65.59,42.13.11,83.65-32.93,112.11-62.13C369.24,264,465.92,205.75,465.84,134.4Z"/>
            <path class="cls-2" d="M354,131.77H316.12a82.47,82.47,0,0,0-80.48-80.14V13h-4V51.64a82.48,82.48,0,0,0-80.22,80.13H112.82v4h38.55a82.5,82.5,0,0,0,80.24,80.59v37.81h4v-37.8a82.5,82.5,0,0,0,80.5-80.6H354ZM231.61,55.66V93.88a40.18,40.18,0,0,0-38,37.89h38V93.86h4v37.91h38.24a40.18,40.18,0,0,0-38.23-37.9V55.64a78.45,78.45,0,0,1,76.44,76.13H274v4H235.64v38.44h-4V135.79h-38v-4H155.42A78.45,78.45,0,0,1,231.61,55.66ZM155.4,135.79h38.22a40.17,40.17,0,0,0,38,38.33v38.23a78.44,78.44,0,0,1-76.21-76.56Zm80.25,76.58V174.15a40.19,40.19,0,0,0,38.26-38.36h38.21a78.45,78.45,0,0,1-76.47,76.58Z"/>
        </g>
    </g>
</svg>