<svg xmlns="http://www.w3.org/2000/svg" 
    xmlns:xlink="http://www.w3.org/1999/xlink" viewBox="0 0 437.84 393.99">
    <defs>
        <style>
        .cls-3{ fill: white; animation: slideup 2s ease-in-out 0s infinite alternate;}
        .cls-1{ fill:hsl(140, 43%, 56%); animation: slideup 2s ease-in-out 0s infinite alternate;}
        .cls-2{ fill:hsl(140, 43%, 36%); animation: slideup 2s ease-in-out 0s infinite alternate;}
        @keyframes slideup {
    0% {
        transform: translate(0,5%);
    }
    100% {
        transform: translate(0,-5%);
    }
        </style>
    </defs>
    <title>Asset 3</title>
    <g class="cls-1">
        <g id="Layer_2" data-name="Layer 2">
            <g id="Layer_1-2" data-name="Layer 1">
                <polygon class="cls-1" points="3.19 299.4 256.18 371.7 394.45 81.67 0 0 3.19 299.4"/>
                <polygon class="cls-2" points="3.19 299.4 256.18 371.7 394.45 81.67 236.12 331.72 3.19 299.4"/>
                <path class="cls-3" d="M184.33,178.24a33.74,33.74,0,0,1,7.92,9.55,25.33,25.33,0,0,1,2.94,12.41,27.84,27.84,0,0,1-3.08,13.41,24,24,0,0,1-8.52,9.09,33.27,33.27,0,0,1-12.45,4.52v17.55h-2.9V227.58c-1.23.09-2.48.14-3.75.14a53.62,53.62,0,0,1-5.52-.28v17.33h-2.9V227a34.47,34.47,0,0,1-11.46-4.67c-2.07-1.36-3.7-2.05-4.88-2.05a2.22,2.22,0,0,0-2,1.52,17.65,17.65,0,0,0-1.13,4.85h-3.33q.57-7.92.57-34.73h3.32q.78,12.38,5.31,20.9a21.45,21.45,0,0,0,13.65,11.07v-47a95.14,95.14,0,0,1-11.78-8.42,31.76,31.76,0,0,1-7.53-9.41,26.28,26.28,0,0,1-2.83-12.45A25.37,25.37,0,0,1,136.87,134a22.12,22.12,0,0,1,7.92-8.31,28.61,28.61,0,0,1,11.28-3.89V104H159v17.54l2.19-.07a36.51,36.51,0,0,1,7.08.64V104h2.9v18.82a32.76,32.76,0,0,1,7.71,4q3.1,2.06,4.88,2.05a2.23,2.23,0,0,0,2.05-1.52,17.55,17.55,0,0,0,1.13-4.85h3.4q-.78,8-.78,29.57H186.2a40.89,40.89,0,0,0-4.35-16.2,20.79,20.79,0,0,0-10.71-10v43A119.22,119.22,0,0,1,184.33,178.24Zm-36.5-47.11a16.38,16.38,0,0,0-3.08,9.94,17.64,17.64,0,0,0,2.87,10.11,33,33,0,0,0,8.45,8.21V125.22A16.16,16.16,0,0,0,147.83,131.13Zm14.61-6.9a22.06,22.06,0,0,0-3.47.28v36.86q-.5-.36,9.27,5.73V124.94A23.39,23.39,0,0,0,162.44,124.23Zm1.06,100.59a22.14,22.14,0,0,0,4.74-.5V184.5q-3.26-2.26-8.56-5.45l-.71-.42v45.84A29.07,29.07,0,0,0,163.5,224.82ZM179.24,217q3.07-4.49,3.07-11.49a18.72,18.72,0,0,0-2.83-10.22,34.55,34.55,0,0,0-8.34-8.74v36.93A17.33,17.33,0,0,0,179.24,217Z"/>
            </g>
        </g>
    </g>
</svg>