<svg xmlns="http://www.w3.org/2000/svg" xmlns:xlink="http://www.w3.org/1999/xlink" viewBox="0 0 500 500"><defs><style>.cls-1{fill:none;}.cls-2{isolation:isolate;}.cls-10,.cls-3,.cls-9{fill:#efeae4;}.cls-4{fill:#bcbec0;}.cls-5{clip-path:url(#clip-path);}.cls-6{fill:#c8e0ae;}.cls-7{fill:#a4c3e5;}.cls-8{fill:#c8b39e;}.cls-14,.cls-9{opacity:0.6;}.cls-10,.cls-14,.cls-9{mix-blend-mode:multiply;}.cls-11{fill:#fff;}.cls-12{fill:#ffd478;}.cls-13{fill:url(#linear-gradient);}.cls-14{fill:#d1d3d4;}.cls-15{fill:url(#linear-gradient-2);}</style><clipPath id="clip-path"><rect class="cls-1" width="500" height="500"/></clipPath><linearGradient id="linear-gradient" x1="232.32" y1="230.66" x2="276.99" y2="230.66" gradientUnits="userSpaceOnUse"><stop offset="0" stop-color="#ab0634"/><stop offset="1" stop-color="#820024"/></linearGradient><linearGradient id="linear-gradient-2" x1="251.97" y1="279.64" x2="251.97" y2="199.67" gradientUnits="userSpaceOnUse"><stop offset="0" stop-color="#d11242"/><stop offset="0.5" stop-color="#ed1849"/><stop offset="1" stop-color="#ed1849"/></linearGradient></defs><title>Artboard 1</title><g class="cls-2"><g id="Background"><rect class="cls-3" width="500" height="500"/></g><g id="Designed_by_Freepik" data-name="Designed by Freepik"><path class="cls-4" d="M251.54,478.5a4.18,4.18,0,0,1,.82.07l.07-.48a5,5,0,0,0-1.69-.14l-.08-.26a.66.66,0,1,0-.8-.65.67.67,0,0,0,.53.65l.08.28a7.23,7.23,0,0,0-1.84.54l.15.44a8.07,8.07,0,0,1,1.64-.38,10.7,10.7,0,0,1,1.12-.07"/></g><g id="Objects"><g class="cls-5"><polygon class="cls-6" points="223.7 47.96 373.97 28.31 359.53 24.82 163.91 24.82 223.7 47.96"/><polygon class="cls-6" points="174.81 128.96 254.42 113.2 434.78 234.55 399.45 251.29 303.67 169.46 174.81 128.96"/><path class="cls-7" d="M-31.33,56.92-13.48,32.7s100.64-5.85,120.15-2.83c20,3.1,25-.26,35.29,0S167.52,36.63,159.42,42c-9.86,6.3-18.84,6.35-34.83,4.33-15.75-2-23.31-4.23-35.93-.28C55.71,57-24.54,56.32-31.33,56.92Z"/><path class="cls-7" d="M483.91,188.69c-12.35-5.54-26.64-6.32-34.92-15.49-8-8.82-11.34-10.26-17.46-13.81S418,158.8,406,155.2c-16.67-5.35-25-1.22-15.67,11.17,9,13.06,32.29,12.9,37.46,18.35s10.76,31,52.85,17.13C480.64,201.85,495.5,197.19,483.91,188.69Z"/><polygon class="cls-8" points="433.3 317.13 369.82 356.89 329.95 336.29 404.2 291.99 433.3 317.13"/><polygon class="cls-9" points="548.83 499.39 396.27 433.62 420.04 385.74 380.89 364.59 440.58 325.09 535.45 405.72 548.83 499.39"/><polygon class="cls-8" points="178.18 237.9 159.29 232.22 167.73 221.23 186.26 226.64 178.18 237.9"/><polygon class="cls-8" points="150.63 276.45 130.55 269.78 140.43 256.92 160.11 263.24 150.63 276.45"/><polygon class="cls-8" points="219.16 248.9 199.18 243.25 206.66 231.63 226.22 237 219.16 248.9"/><polygon class="cls-8" points="207.57 268.85 186.9 262.71 195 250.11 215.23 255.93 207.57 268.85"/><polygon class="cls-8" points="128.64 243.13 109.98 237.62 119.59 226.28 137.88 231.52 128.64 243.13"/><polygon class="cls-8" points="188.77 165.75 170.12 161.7 179.72 150.36 198.02 155.89 188.77 165.75"/><polygon class="cls-8" points="446.14 291.13 429.5 277.26 456.08 260.56 471.34 273.39 446.14 291.13"/><polygon class="cls-8" points="47.77 224.73 33.68 216.44 46.03 207.26 60.05 215.21 47.77 224.73"/><polygon class="cls-8" points="22.58 209.86 8.48 201.57 20.83 192.39 34.85 200.34 22.58 209.86"/><polygon class="cls-8" points="83.19 167.84 69.85 162.8 101.67 147.44 112.14 150.89 83.19 167.84"/><polygon class="cls-8" points="195.02 289.77 173.64 283.1 182.44 269.43 203.34 275.74 195.02 289.77"/><polygon class="cls-8" points="370.83 52.84 447 41.09 459.2 46.35 510.85 41.53 511.67 49.35 391.05 61.34 370.83 52.84"/><polygon class="cls-8" points="360.77 43.9 329.75 48.44 323.94 46.61 354.84 42.13 360.77 43.9"/><polygon class="cls-8" points="413.65 35.12 382.64 39.66 376.82 37.83 407.72 33.34 413.65 35.12"/><polygon class="cls-8" points="471.4 24.4 440.39 28.94 434.57 27.11 465.47 22.62 471.4 24.4"/><polygon class="cls-8" points="305.85 52.34 272.84 57.18 267.24 55.23 300.11 50.45 305.85 52.34"/><polygon class="cls-8" points="145.06 58.14 174.23 59.73 170.63 62.8 140.6 60.99 145.06 58.14"/><polygon class="cls-8" points="97.77 55.48 126.52 57.05 122.44 60.09 92.87 58.3 97.77 55.48"/><polygon class="cls-8" points="17 124.04 81.77 115.09 87.06 125.2 17.53 138.58 17 124.04"/><polygon class="cls-8" points="172.82 101.88 220.03 92.83 225.77 98.09 176.33 109.24 172.82 101.88"/><polygon class="cls-8" points="365.35 84.73 381.17 84.27 391.94 92.36 376.03 92.87 365.35 84.73"/><polygon class="cls-8" points="301.41 69.29 312.95 67.52 322.74 74.8 308.26 75.48 301.41 69.29"/><polygon class="cls-8" points="409.44 83.82 423.64 83.26 435.93 91.38 421.89 92.06 409.44 83.82"/><polygon class="cls-10" points="164.96 74.96 173.57 66.84 99.32 63.71 -3.67 67.59 -5.33 82.05 67.68 88.15 120.71 74.93 164.96 74.96"/><polygon class="cls-10" points="134.58 200.02 165.36 170.94 237.82 185.82 250.11 166.12 294.85 177.47 325.53 204.14 264.1 235.6 134.58 200.02"/><polygon class="cls-9" points="317.1 55.23 512.39 21.85 512.04 55.2 344.42 71.24 317.1 55.23"/><polygon class="cls-9" points="285.36 106.56 298.31 102.61 320.04 105.63 350.39 145.42 285.36 106.56"/><path class="cls-11" d="M246.29,52.86c1,0,38.2-5.06,106.76-14.52l20.06,5.93-24,3.94h0L248.69,64.69c-1.55.25-2.48,1.23-2.08,2.19a3.06,3.06,0,0,0,2.83,1.33,4.9,4.9,0,0,0,.77-.06l29.43-4.89,18.1,16.08-58.35,1.8c-1.71,0-3.06,1-3,2.09s1.37,1.92,3,1.92h.15l143.3-4.47,42.61,29.82a6.3,6.3,0,0,0,3.46,1.11,3.17,3.17,0,0,0,1.61-.37c1.19-.71.85-2.18-.75-3.28l-40-27.49,36.09-1.13,51.48,35.06a7.34,7.34,0,0,0,3.85,1.25,3.06,3.06,0,0,0,1.46-.32c1.19-.67.73-2.15-1-3.32L432.61,79.13l55-1.4c1.65-.06,2.31-1,1.49-2a6,6,0,0,0-4.44-1.81L354.24,77.6l-7.05-4.68,166.48-16c1.48-.14,1.94-1,1-2a5.82,5.82,0,0,0-4.27-1.44L389.77,65,356.28,50.52,514.05,23.25c1.26-.21,1.54-1,.62-1.77a5.48,5.48,0,0,0-3.92-1l-131,22.71L360,37.38c11.69-1.61,89.68-15,102.91-16.85,1.28-.18,1.69-.92.92-1.66a5,5,0,0,0-3.67-1c-12,1.64-92.51,15.36-108.41,17.53h0C304.59,41.82,249.24,49.33,246,49.65c-1.38.09-2.48.77-2.5,1.59S244.74,52.86,246.29,52.86Zm58.4,26.27L285.36,62.31l31.07-5.17L347,77.83Zm77.93-13.49-40.51,3.9L322.05,56.21l28.23-4.7Z"/><path class="cls-11" d="M547.86,181.53c-2.29-1.74-5.27-2.46-6.68-1.61L514,196.31l-68.58-41.19L491,163a5.34,5.34,0,0,0,1,.09,2.64,2.64,0,0,0,2-.68,2,2,0,0,0-.08-2.46L465.06,114a6.45,6.45,0,0,0-4.93-2.45h-.05c-1.85,0-2.71,1.06-1.9,2.39l25.44,42-18.17-3.08L446,125.16a6.32,6.32,0,0,0-4.13-2.29l-49.18-6.44h0L336,109,325,95.94a4.63,4.63,0,0,0-4.49-1.19c-1.54.45-2.06,1.72-1.14,2.85L352.47,138a5.11,5.11,0,0,0,3,1.67l75.4,13,77.26,47.19L401.59,264.1l-104-88.91a5,5,0,0,0-1.67-.91l-155.7-49.42a5.2,5.2,0,0,0-5.07,1.48c-1.16,1.36-.77,2.9.89,3.43l26.34,8.51-51.37,43.8L91.17,175.7,135.09,149a3.75,3.75,0,0,0,1.93-2.6,2.07,2.07,0,0,0-1.39-2.18L107.29,132.1a5.46,5.46,0,0,0-5.34,1.26c-1.45,1.37-1.39,3,.15,3.69l24.28,10.6-42,25.09a6.36,6.36,0,0,0-.76.53L51,162.78a5.3,5.3,0,0,0-3.41.28l-60.18,22.55,9.31-25.83c.6-1.65-.78-2.69-3.07-2.32s-4.68,2-5.32,3.67L-45.23,249l-.07.1a5.1,5.1,0,0,0-.51,1.42l-107,280.5c-2.19,5.73-1,9.67,2.5,9.67a6.3,6.3,0,0,0,1.86-.3c4.93-1.51,10.86-8.12,13.22-14.66L-37,253.16l85-9.23a7.78,7.78,0,0,0,4.39-2L169,140.4l77.17,24.94-10.39,16.37L163.56,167a5.25,5.25,0,0,0-4.67,1.53L60.52,272.4a7.35,7.35,0,0,0-2.16,4.72,3.16,3.16,0,0,0,2.12,3.21l131.45,45.12a4.65,4.65,0,0,0,1.29,1.17,4.55,4.55,0,0,0,2.35.64,4.79,4.79,0,0,0,1.18-.16l78.81,27a5.12,5.12,0,0,0,1.63.28,4.81,4.81,0,0,0,2.55-.74l33-20.47a4.81,4.81,0,0,0,1-.6l30.59-19a4.16,4.16,0,0,0,1.31-.81l57.6-35.74,156.6,137.12c2.25,2,4.54,3,6.34,3a3.12,3.12,0,0,0,3.21-2.23c1-3.21-1.48-8.69-5.61-12.22L411.07,272.2,549.5,186.3C550.91,185.43,550.17,183.28,547.86,181.53Zm-91.08-30.16-42.36-7.17-15.59-22.13,41.77,5.55Zm-71.46-12.1c-5.31-6.85-12.27-16.06-15.66-21.08L391,121l14.85,21.71Zm-44.86-25,21.5,2.86c2.81,4.73,10,14.53,14.56,20.6l-19-3.22ZM46.69,169.44l57.18,18.76-20.4,17.39L26,177.61Zm2.46,65.42-82.77,9L-15.28,193l30.14-11,60.77,30.31ZM163,174.08l73.73,15.28a4.52,4.52,0,0,0,4.73-1.89l12.08-19.73,39.21,12.67,25.71,22.51-55.07,27.89-95-24.23a4.07,4.07,0,0,0-1.2-.3l-27.42-7Zm-7.75,125.41,49.17-74.7L236,233l-41.64,79.57ZM111.89,285,167.2,215.1l28.49,7.42-50.22,73.7Zm21.4-78.7,25.49,6.63-56.2,69-29.86-10ZM276,339.87,204.73,316l40.37-80.66,16.71,4.34,10.48,9.9L254.1,293.56a6.23,6.23,0,0,0,2.32,7.59l41.49,25.47Zm33.45-20.18-43.7-26.14L280,256.93l52,49.12Zm31.9-19.23L272,236.77l53.48-27.71,68.26,59.77Z"/><path class="cls-11" d="M61.39,89.68,132.87,98a4.53,4.53,0,0,0,.52,0,4.71,4.71,0,0,0,3.87-1.84c.71-1.19-.08-2.3-1.76-2.49l-60-6.9,45-10,44,0h0l77.4.06h0c1.68,0,3.05-.86,3.07-1.91s-1.31-1.89-3-1.9l-71.63,0L194,51c.86-.81.5-1.79-.8-2.18a4.4,4.4,0,0,0-3.9.75L172.34,65l-42-1.75,17.34-10.68c1.17-.72,1.27-1.73.23-2.25a4.62,4.62,0,0,0-4,.36L123.64,62.94l-23.19-1h-.4L70.23,63.18l33.89-13.37c1.46-.58,2.12-1.58,1.47-2.23s-2.32-.72-3.77-.15L60.38,63.59l-78.7,3.18a5.8,5.8,0,0,0-4.19,1.9c-.66,1,.16,1.75,1.84,1.68L98.38,65.49l70.21,3-5,4.61-42.09,0h0a5.67,5.67,0,0,0-1.14.12L64,85.52l-97-8.29A6.76,6.76,0,0,0-37.8,79c-1.07,1.11-.63,2.12,1,2.26L45.1,88.33,2.5,110.82c-1.95,1-2.87,2.56-2,3.41a2.48,2.48,0,0,0,1.75.54,7.31,7.31,0,0,0,3.33-.91l46.58-25Z"/><path class="cls-12" d="M515.39,111.94,298.79,89.16a10.56,10.56,0,0,0-3.08.08l-35.43,6.49L240,83l15.37-11.32a3.1,3.1,0,0,0,1.46-3.25,4.56,4.56,0,0,0-3-2.79L163.66,28.93c-2.3-.91-3.92-1.52-6.14-.13s-.73,1.89,1.57,2.82l81.27,38.22L227,79.24-9.54,106.54c-4.48.54-11.74,6.17-13.36,9.12-1.45,2.65-2.17,7.58,1.51,7.58a12.49,12.49,0,0,0,1.57-.1L227.91,88.21,244.37,99-43,158.2c-5.46,1.16-11.16,5.15-12.73,9-1.3,3.15-2.55,9.27,1.3,9.27a14,14,0,0,0,3-.36l308-69L740.74,431.79c5.8,3.84,11,5.77,14.7,5.77,4,0,11.29-5.93,10.82-10.18-.89-8.09-.86-20.48-12.47-27.71L273.07,103.77l26.27-5,226.14,29.26c4.79.58,5.48-3.63,3.7-6.75S519.93,112.47,515.39,111.94Z"/><path class="cls-11" d="M513.61,511.94a12.15,12.15,0,0,1-4.73-1.07L-60,275.53c-2.77-1.2-2.84-4.07-.2-6.41s6.9-3.22,9.63-2.08L513.5,495.53c5.59,2.34,6.84,6.36,6.6,11.19C519.92,510.2,517.12,511.94,513.61,511.94Z"/><polygon class="cls-11" points="32.45 306.57 22.88 303.56 42.22 238.17 51.78 241.18 32.45 306.57"/><polygon class="cls-9" points="-28.94 303.82 340 462 -92 479 -28.94 303.82"/></g><path class="cls-13" d="M254.69,259.82c11.19-10.77,16.78-19.3,19.55-25.43a22.18,22.18,0,1,0-41.6-11.49h0s-4.14,13.75,19.33,36.92ZM254,232.37a8.68,8.68,0,1,1,8.67-8.68A8.68,8.68,0,0,1,254,232.37Z"/><path class="cls-14" d="M289.47,244.5c-12,0-27.84,2.5-35.89,5.62h-.05s-11.13,3.39-1.6,9.7c18.1-2.83,29.16-5.07,35.87-6.68a60.84,60.84,0,0,0,9.62-2.81C305.29,247.11,301.73,244.5,289.47,244.5Zm-20.26,8.29c-5.17,0-6.67-1.1-3.35-2.46s10.2-2.46,15.37-2.46,6.68,1.1,3.36,2.46S274.38,252.79,269.21,252.79Z"/><path class="cls-15" d="M252,201.5a22.17,22.17,0,0,0-22.15,21.4h0s-2.86,12.88,22.1,36.92c11.18-10.77,16.77-19.3,19.54-25.43A22.19,22.19,0,0,0,252,201.5Zm0,31.55a9.36,9.36,0,1,1,9.37-9.36A9.36,9.36,0,0,1,252,233.05Z"/></g></g></svg>